<mxfile host="app.diagrams.net" agent="Mozilla/5.0 (Windows NT 10.0; Win64; x64) AppleWebKit/537.36 (KHTML, like Gecko) Chrome/130.0.0.0 Safari/537.36" version="24.8.4">
  <diagram id="C5RBs43oDa-KdzZeNtuy" name="Page-1">
    <mxGraphModel dx="3000" dy="1491" grid="1" gridSize="10" guides="1" tooltips="1" connect="1" arrows="1" fold="1" page="1" pageScale="1" pageWidth="827" pageHeight="1169" math="0" shadow="0">
      <root>
        <mxCell id="WIyWlLk6GJQsqaUBKTNV-0" />
        <mxCell id="WIyWlLk6GJQsqaUBKTNV-1" parent="WIyWlLk6GJQsqaUBKTNV-0" />
        <mxCell id="WIyWlLk6GJQsqaUBKTNV-3" value="Mulai" style="rounded=1;whiteSpace=wrap;html=1;fontSize=12;glass=0;strokeWidth=1;shadow=0;" parent="WIyWlLk6GJQsqaUBKTNV-1" vertex="1">
          <mxGeometry x="354" y="100" width="120" height="40" as="geometry" />
        </mxCell>
        <mxCell id="0tAWVHB6Q2zak3xJbXym-4" value="" style="endArrow=classic;html=1;rounded=0;" edge="1" parent="WIyWlLk6GJQsqaUBKTNV-1" source="WIyWlLk6GJQsqaUBKTNV-3">
          <mxGeometry width="50" height="50" relative="1" as="geometry">
            <mxPoint x="414" y="170" as="sourcePoint" />
            <mxPoint x="414" y="190.71067811865476" as="targetPoint" />
          </mxGeometry>
        </mxCell>
        <mxCell id="0tAWVHB6Q2zak3xJbXym-81" value="" style="edgeStyle=orthogonalEdgeStyle;rounded=0;orthogonalLoop=1;jettySize=auto;html=1;" edge="1" parent="WIyWlLk6GJQsqaUBKTNV-1" source="0tAWVHB6Q2zak3xJbXym-5" target="0tAWVHB6Q2zak3xJbXym-8">
          <mxGeometry relative="1" as="geometry" />
        </mxCell>
        <mxCell id="0tAWVHB6Q2zak3xJbXym-5" value="print &quot;Selamat datang di Tol&lt;div&gt;Cipularang&quot; + tarif&lt;/div&gt;" style="shape=parallelogram;perimeter=parallelogramPerimeter;whiteSpace=wrap;html=1;fixedSize=1;" vertex="1" parent="WIyWlLk6GJQsqaUBKTNV-1">
          <mxGeometry x="321" y="190" width="186" height="60" as="geometry" />
        </mxCell>
        <mxCell id="0tAWVHB6Q2zak3xJbXym-7" value="" style="endArrow=classic;html=1;rounded=0;" edge="1" parent="WIyWlLk6GJQsqaUBKTNV-1" source="0tAWVHB6Q2zak3xJbXym-5">
          <mxGeometry width="50" height="50" relative="1" as="geometry">
            <mxPoint x="414" y="300" as="sourcePoint" />
            <mxPoint x="414" y="320.71067811865476" as="targetPoint" />
          </mxGeometry>
        </mxCell>
        <mxCell id="0tAWVHB6Q2zak3xJbXym-8" value="Input Jenis&lt;div&gt;Kendaraan&lt;/div&gt;" style="shape=parallelogram;perimeter=parallelogramPerimeter;whiteSpace=wrap;html=1;fixedSize=1;" vertex="1" parent="WIyWlLk6GJQsqaUBKTNV-1">
          <mxGeometry x="354" y="300" width="120" height="60" as="geometry" />
        </mxCell>
        <mxCell id="0tAWVHB6Q2zak3xJbXym-9" value="" style="endArrow=classic;html=1;rounded=0;" edge="1" parent="WIyWlLk6GJQsqaUBKTNV-1" source="0tAWVHB6Q2zak3xJbXym-10">
          <mxGeometry width="50" height="50" relative="1" as="geometry">
            <mxPoint x="414" y="430" as="sourcePoint" />
            <mxPoint x="414" y="450.71067811865476" as="targetPoint" />
          </mxGeometry>
        </mxCell>
        <mxCell id="0tAWVHB6Q2zak3xJbXym-39" style="edgeStyle=orthogonalEdgeStyle;rounded=0;orthogonalLoop=1;jettySize=auto;html=1;exitX=0.5;exitY=1;exitDx=0;exitDy=0;entryX=0.5;entryY=0;entryDx=0;entryDy=0;" edge="1" parent="WIyWlLk6GJQsqaUBKTNV-1" source="0tAWVHB6Q2zak3xJbXym-10" target="0tAWVHB6Q2zak3xJbXym-28">
          <mxGeometry relative="1" as="geometry" />
        </mxCell>
        <mxCell id="0tAWVHB6Q2zak3xJbXym-40" style="edgeStyle=orthogonalEdgeStyle;rounded=0;orthogonalLoop=1;jettySize=auto;html=1;exitX=0.5;exitY=1;exitDx=0;exitDy=0;entryX=0.5;entryY=0;entryDx=0;entryDy=0;" edge="1" parent="WIyWlLk6GJQsqaUBKTNV-1" source="0tAWVHB6Q2zak3xJbXym-10" target="0tAWVHB6Q2zak3xJbXym-29">
          <mxGeometry relative="1" as="geometry" />
        </mxCell>
        <mxCell id="0tAWVHB6Q2zak3xJbXym-41" style="edgeStyle=orthogonalEdgeStyle;rounded=0;orthogonalLoop=1;jettySize=auto;html=1;exitX=0.5;exitY=1;exitDx=0;exitDy=0;entryX=0.5;entryY=0;entryDx=0;entryDy=0;" edge="1" parent="WIyWlLk6GJQsqaUBKTNV-1" source="0tAWVHB6Q2zak3xJbXym-10" target="0tAWVHB6Q2zak3xJbXym-30">
          <mxGeometry relative="1" as="geometry" />
        </mxCell>
        <mxCell id="0tAWVHB6Q2zak3xJbXym-49" value="" style="edgeStyle=orthogonalEdgeStyle;rounded=0;orthogonalLoop=1;jettySize=auto;html=1;" edge="1" parent="WIyWlLk6GJQsqaUBKTNV-1" source="0tAWVHB6Q2zak3xJbXym-28" target="0tAWVHB6Q2zak3xJbXym-44">
          <mxGeometry relative="1" as="geometry" />
        </mxCell>
        <mxCell id="0tAWVHB6Q2zak3xJbXym-28" value="Golongan I" style="rounded=0;whiteSpace=wrap;html=1;" vertex="1" parent="WIyWlLk6GJQsqaUBKTNV-1">
          <mxGeometry x="24" y="570" width="120" height="60" as="geometry" />
        </mxCell>
        <mxCell id="0tAWVHB6Q2zak3xJbXym-50" value="" style="edgeStyle=orthogonalEdgeStyle;rounded=0;orthogonalLoop=1;jettySize=auto;html=1;" edge="1" parent="WIyWlLk6GJQsqaUBKTNV-1" source="0tAWVHB6Q2zak3xJbXym-29" target="0tAWVHB6Q2zak3xJbXym-45">
          <mxGeometry relative="1" as="geometry" />
        </mxCell>
        <mxCell id="0tAWVHB6Q2zak3xJbXym-29" value="Golongan II" style="rounded=0;whiteSpace=wrap;html=1;" vertex="1" parent="WIyWlLk6GJQsqaUBKTNV-1">
          <mxGeometry x="194" y="570" width="120" height="60" as="geometry" />
        </mxCell>
        <mxCell id="0tAWVHB6Q2zak3xJbXym-51" value="" style="edgeStyle=orthogonalEdgeStyle;rounded=0;orthogonalLoop=1;jettySize=auto;html=1;" edge="1" parent="WIyWlLk6GJQsqaUBKTNV-1" source="0tAWVHB6Q2zak3xJbXym-30" target="0tAWVHB6Q2zak3xJbXym-46">
          <mxGeometry relative="1" as="geometry" />
        </mxCell>
        <mxCell id="0tAWVHB6Q2zak3xJbXym-30" value="Golongan III" style="rounded=0;whiteSpace=wrap;html=1;" vertex="1" parent="WIyWlLk6GJQsqaUBKTNV-1">
          <mxGeometry x="354" y="570" width="120" height="60" as="geometry" />
        </mxCell>
        <mxCell id="0tAWVHB6Q2zak3xJbXym-52" value="" style="edgeStyle=orthogonalEdgeStyle;rounded=0;orthogonalLoop=1;jettySize=auto;html=1;" edge="1" parent="WIyWlLk6GJQsqaUBKTNV-1" source="0tAWVHB6Q2zak3xJbXym-31" target="0tAWVHB6Q2zak3xJbXym-47">
          <mxGeometry relative="1" as="geometry" />
        </mxCell>
        <mxCell id="0tAWVHB6Q2zak3xJbXym-31" value="Golongan IV" style="rounded=0;whiteSpace=wrap;html=1;" vertex="1" parent="WIyWlLk6GJQsqaUBKTNV-1">
          <mxGeometry x="524" y="570" width="120" height="60" as="geometry" />
        </mxCell>
        <mxCell id="0tAWVHB6Q2zak3xJbXym-53" value="" style="edgeStyle=orthogonalEdgeStyle;rounded=0;orthogonalLoop=1;jettySize=auto;html=1;" edge="1" parent="WIyWlLk6GJQsqaUBKTNV-1" source="0tAWVHB6Q2zak3xJbXym-32" target="0tAWVHB6Q2zak3xJbXym-48">
          <mxGeometry relative="1" as="geometry" />
        </mxCell>
        <mxCell id="0tAWVHB6Q2zak3xJbXym-32" value="Golongan V" style="rounded=0;whiteSpace=wrap;html=1;" vertex="1" parent="WIyWlLk6GJQsqaUBKTNV-1">
          <mxGeometry x="684" y="570" width="120" height="60" as="geometry" />
        </mxCell>
        <mxCell id="0tAWVHB6Q2zak3xJbXym-42" style="edgeStyle=orthogonalEdgeStyle;rounded=0;orthogonalLoop=1;jettySize=auto;html=1;exitX=0.5;exitY=1;exitDx=0;exitDy=0;entryX=0.5;entryY=0.083;entryDx=0;entryDy=0;entryPerimeter=0;" edge="1" parent="WIyWlLk6GJQsqaUBKTNV-1" source="0tAWVHB6Q2zak3xJbXym-10" target="0tAWVHB6Q2zak3xJbXym-31">
          <mxGeometry relative="1" as="geometry" />
        </mxCell>
        <mxCell id="0tAWVHB6Q2zak3xJbXym-43" style="edgeStyle=orthogonalEdgeStyle;rounded=0;orthogonalLoop=1;jettySize=auto;html=1;exitX=0.5;exitY=1;exitDx=0;exitDy=0;entryX=0.5;entryY=0.083;entryDx=0;entryDy=0;entryPerimeter=0;" edge="1" parent="WIyWlLk6GJQsqaUBKTNV-1" source="0tAWVHB6Q2zak3xJbXym-10" target="0tAWVHB6Q2zak3xJbXym-32">
          <mxGeometry relative="1" as="geometry" />
        </mxCell>
        <mxCell id="0tAWVHB6Q2zak3xJbXym-95" style="edgeStyle=orthogonalEdgeStyle;rounded=0;orthogonalLoop=1;jettySize=auto;html=1;exitX=0.5;exitY=1;exitDx=0;exitDy=0;" edge="1" parent="WIyWlLk6GJQsqaUBKTNV-1" source="0tAWVHB6Q2zak3xJbXym-44">
          <mxGeometry relative="1" as="geometry">
            <mxPoint x="414" y="820" as="targetPoint" />
          </mxGeometry>
        </mxCell>
        <mxCell id="0tAWVHB6Q2zak3xJbXym-44" value="Output harga&amp;nbsp;&lt;div&gt;Golongan 1&lt;/div&gt;" style="shape=parallelogram;perimeter=parallelogramPerimeter;whiteSpace=wrap;html=1;fixedSize=1;" vertex="1" parent="WIyWlLk6GJQsqaUBKTNV-1">
          <mxGeometry x="24" y="670" width="120" height="60" as="geometry" />
        </mxCell>
        <mxCell id="0tAWVHB6Q2zak3xJbXym-99" style="edgeStyle=orthogonalEdgeStyle;rounded=0;orthogonalLoop=1;jettySize=auto;html=1;exitX=0.5;exitY=1;exitDx=0;exitDy=0;endArrow=none;endFill=0;" edge="1" parent="WIyWlLk6GJQsqaUBKTNV-1">
          <mxGeometry relative="1" as="geometry">
            <mxPoint x="254" y="775" as="targetPoint" />
            <mxPoint x="254" y="725" as="sourcePoint" />
          </mxGeometry>
        </mxCell>
        <mxCell id="0tAWVHB6Q2zak3xJbXym-45" value="Output harga&lt;div&gt;Golongan 2&lt;/div&gt;" style="shape=parallelogram;perimeter=parallelogramPerimeter;whiteSpace=wrap;html=1;fixedSize=1;" vertex="1" parent="WIyWlLk6GJQsqaUBKTNV-1">
          <mxGeometry x="194" y="670" width="120" height="60" as="geometry" />
        </mxCell>
        <mxCell id="0tAWVHB6Q2zak3xJbXym-112" style="edgeStyle=orthogonalEdgeStyle;rounded=0;orthogonalLoop=1;jettySize=auto;html=1;exitX=0.5;exitY=1;exitDx=0;exitDy=0;entryX=0.5;entryY=0;entryDx=0;entryDy=0;" edge="1" parent="WIyWlLk6GJQsqaUBKTNV-1" source="0tAWVHB6Q2zak3xJbXym-46" target="0tAWVHB6Q2zak3xJbXym-109">
          <mxGeometry relative="1" as="geometry" />
        </mxCell>
        <mxCell id="0tAWVHB6Q2zak3xJbXym-46" value="Output harga&lt;div&gt;Golongan 3&lt;/div&gt;" style="shape=parallelogram;perimeter=parallelogramPerimeter;whiteSpace=wrap;html=1;fixedSize=1;" vertex="1" parent="WIyWlLk6GJQsqaUBKTNV-1">
          <mxGeometry x="354" y="670" width="120" height="60" as="geometry" />
        </mxCell>
        <mxCell id="0tAWVHB6Q2zak3xJbXym-101" style="edgeStyle=orthogonalEdgeStyle;rounded=0;orthogonalLoop=1;jettySize=auto;html=1;exitX=0.5;exitY=1;exitDx=0;exitDy=0;entryX=0.5;entryY=0;entryDx=0;entryDy=0;" edge="1" parent="WIyWlLk6GJQsqaUBKTNV-1" source="0tAWVHB6Q2zak3xJbXym-47">
          <mxGeometry relative="1" as="geometry">
            <mxPoint x="414" y="820" as="targetPoint" />
          </mxGeometry>
        </mxCell>
        <mxCell id="0tAWVHB6Q2zak3xJbXym-47" value="Output harga Golongan 4" style="shape=parallelogram;perimeter=parallelogramPerimeter;whiteSpace=wrap;html=1;fixedSize=1;" vertex="1" parent="WIyWlLk6GJQsqaUBKTNV-1">
          <mxGeometry x="524" y="670" width="120" height="60" as="geometry" />
        </mxCell>
        <mxCell id="0tAWVHB6Q2zak3xJbXym-111" style="edgeStyle=orthogonalEdgeStyle;rounded=0;orthogonalLoop=1;jettySize=auto;html=1;exitX=0.5;exitY=1;exitDx=0;exitDy=0;entryX=0.5;entryY=0;entryDx=0;entryDy=0;" edge="1" parent="WIyWlLk6GJQsqaUBKTNV-1" source="0tAWVHB6Q2zak3xJbXym-48" target="0tAWVHB6Q2zak3xJbXym-109">
          <mxGeometry relative="1" as="geometry" />
        </mxCell>
        <mxCell id="0tAWVHB6Q2zak3xJbXym-48" value="Output harga&lt;div&gt;Golongan 5&lt;/div&gt;" style="shape=parallelogram;perimeter=parallelogramPerimeter;whiteSpace=wrap;html=1;fixedSize=1;" vertex="1" parent="WIyWlLk6GJQsqaUBKTNV-1">
          <mxGeometry x="684" y="670" width="120" height="60" as="geometry" />
        </mxCell>
        <mxCell id="0tAWVHB6Q2zak3xJbXym-80" value="" style="endArrow=classic;html=1;rounded=0;" edge="1" parent="WIyWlLk6GJQsqaUBKTNV-1" source="0tAWVHB6Q2zak3xJbXym-8" target="0tAWVHB6Q2zak3xJbXym-10">
          <mxGeometry width="50" height="50" relative="1" as="geometry">
            <mxPoint x="414" y="360" as="sourcePoint" />
            <mxPoint x="414" y="450.71067811865476" as="targetPoint" />
          </mxGeometry>
        </mxCell>
        <mxCell id="0tAWVHB6Q2zak3xJbXym-137" style="edgeStyle=orthogonalEdgeStyle;rounded=0;orthogonalLoop=1;jettySize=auto;html=1;exitX=1;exitY=0.5;exitDx=0;exitDy=0;entryX=0;entryY=0.5;entryDx=0;entryDy=0;" edge="1" parent="WIyWlLk6GJQsqaUBKTNV-1" source="0tAWVHB6Q2zak3xJbXym-10" target="0tAWVHB6Q2zak3xJbXym-85">
          <mxGeometry relative="1" as="geometry" />
        </mxCell>
        <mxCell id="0tAWVHB6Q2zak3xJbXym-10" value="Penggolongan&amp;nbsp;&lt;div&gt;Jenis Kendaraan&lt;/div&gt;&lt;div&gt;I/II/III/IV/V&lt;/div&gt;" style="rhombus;whiteSpace=wrap;html=1;" vertex="1" parent="WIyWlLk6GJQsqaUBKTNV-1">
          <mxGeometry x="341" y="410" width="146" height="80" as="geometry" />
        </mxCell>
        <mxCell id="0tAWVHB6Q2zak3xJbXym-138" style="edgeStyle=orthogonalEdgeStyle;rounded=0;orthogonalLoop=1;jettySize=auto;html=1;exitX=0.5;exitY=1;exitDx=0;exitDy=0;entryX=1;entryY=0.5;entryDx=0;entryDy=0;" edge="1" parent="WIyWlLk6GJQsqaUBKTNV-1" source="0tAWVHB6Q2zak3xJbXym-85" target="0tAWVHB6Q2zak3xJbXym-134">
          <mxGeometry relative="1" as="geometry" />
        </mxCell>
        <mxCell id="0tAWVHB6Q2zak3xJbXym-85" value="print &quot;Mohon maaf anda tidak dapat lewat melalui jalur ini." style="shape=parallelogram;perimeter=parallelogramPerimeter;whiteSpace=wrap;html=1;fixedSize=1;" vertex="1" parent="WIyWlLk6GJQsqaUBKTNV-1">
          <mxGeometry x="827" y="415" width="180" height="70" as="geometry" />
        </mxCell>
        <mxCell id="0tAWVHB6Q2zak3xJbXym-115" style="edgeStyle=orthogonalEdgeStyle;rounded=0;orthogonalLoop=1;jettySize=auto;html=1;exitX=0.5;exitY=1;exitDx=0;exitDy=0;entryX=0.5;entryY=0;entryDx=0;entryDy=0;" edge="1" parent="WIyWlLk6GJQsqaUBKTNV-1" source="0tAWVHB6Q2zak3xJbXym-109" target="0tAWVHB6Q2zak3xJbXym-114">
          <mxGeometry relative="1" as="geometry" />
        </mxCell>
        <mxCell id="0tAWVHB6Q2zak3xJbXym-121" style="edgeStyle=orthogonalEdgeStyle;rounded=0;orthogonalLoop=1;jettySize=auto;html=1;exitX=1;exitY=0.5;exitDx=0;exitDy=0;entryX=0.5;entryY=0;entryDx=0;entryDy=0;endArrow=none;endFill=0;startArrow=classic;startFill=1;" edge="1" parent="WIyWlLk6GJQsqaUBKTNV-1" source="0tAWVHB6Q2zak3xJbXym-109" target="0tAWVHB6Q2zak3xJbXym-116">
          <mxGeometry relative="1" as="geometry" />
        </mxCell>
        <mxCell id="0tAWVHB6Q2zak3xJbXym-109" value="Input data&amp;nbsp;&lt;div&gt;kartu e-toll&lt;/div&gt;" style="shape=parallelogram;perimeter=parallelogramPerimeter;whiteSpace=wrap;html=1;fixedSize=1;" vertex="1" parent="WIyWlLk6GJQsqaUBKTNV-1">
          <mxGeometry x="354" y="820" width="120" height="60" as="geometry" />
        </mxCell>
        <mxCell id="0tAWVHB6Q2zak3xJbXym-117" style="edgeStyle=orthogonalEdgeStyle;rounded=0;orthogonalLoop=1;jettySize=auto;html=1;exitX=1;exitY=0.5;exitDx=0;exitDy=0;entryX=0;entryY=0.5;entryDx=0;entryDy=0;" edge="1" parent="WIyWlLk6GJQsqaUBKTNV-1" source="0tAWVHB6Q2zak3xJbXym-114" target="0tAWVHB6Q2zak3xJbXym-116">
          <mxGeometry relative="1" as="geometry" />
        </mxCell>
        <mxCell id="0tAWVHB6Q2zak3xJbXym-125" value="" style="edgeStyle=orthogonalEdgeStyle;rounded=0;orthogonalLoop=1;jettySize=auto;html=1;" edge="1" parent="WIyWlLk6GJQsqaUBKTNV-1" source="0tAWVHB6Q2zak3xJbXym-114" target="0tAWVHB6Q2zak3xJbXym-124">
          <mxGeometry relative="1" as="geometry" />
        </mxCell>
        <mxCell id="0tAWVHB6Q2zak3xJbXym-114" value="Saldo &amp;gt;= tarif?" style="rhombus;whiteSpace=wrap;html=1;" vertex="1" parent="WIyWlLk6GJQsqaUBKTNV-1">
          <mxGeometry x="341" y="920" width="146" height="80" as="geometry" />
        </mxCell>
        <mxCell id="0tAWVHB6Q2zak3xJbXym-116" value="print &quot;Harap isi saldo&amp;nbsp;&lt;div&gt;anda&amp;nbsp;&lt;/div&gt;&lt;div&gt;sebelum memasuki tol ini&quot;&lt;/div&gt;" style="shape=parallelogram;perimeter=parallelogramPerimeter;whiteSpace=wrap;html=1;fixedSize=1;" vertex="1" parent="WIyWlLk6GJQsqaUBKTNV-1">
          <mxGeometry x="524" y="925" width="160" height="70" as="geometry" />
        </mxCell>
        <mxCell id="0tAWVHB6Q2zak3xJbXym-122" value="tidak" style="text;html=1;align=center;verticalAlign=middle;resizable=0;points=[];autosize=1;strokeColor=none;fillColor=none;" vertex="1" parent="WIyWlLk6GJQsqaUBKTNV-1">
          <mxGeometry x="481" y="933" width="50" height="30" as="geometry" />
        </mxCell>
        <mxCell id="0tAWVHB6Q2zak3xJbXym-129" value="" style="edgeStyle=orthogonalEdgeStyle;rounded=0;orthogonalLoop=1;jettySize=auto;html=1;" edge="1" parent="WIyWlLk6GJQsqaUBKTNV-1" source="0tAWVHB6Q2zak3xJbXym-124" target="0tAWVHB6Q2zak3xJbXym-128">
          <mxGeometry relative="1" as="geometry" />
        </mxCell>
        <mxCell id="0tAWVHB6Q2zak3xJbXym-124" value="sisa saldo = saldo - tarif" style="whiteSpace=wrap;html=1;" vertex="1" parent="WIyWlLk6GJQsqaUBKTNV-1">
          <mxGeometry x="354" y="1040" width="120" height="60" as="geometry" />
        </mxCell>
        <mxCell id="0tAWVHB6Q2zak3xJbXym-127" value="ya" style="text;html=1;align=center;verticalAlign=middle;resizable=0;points=[];autosize=1;strokeColor=none;fillColor=none;" vertex="1" parent="WIyWlLk6GJQsqaUBKTNV-1">
          <mxGeometry x="410" y="1002" width="40" height="30" as="geometry" />
        </mxCell>
        <mxCell id="0tAWVHB6Q2zak3xJbXym-133" value="" style="edgeStyle=orthogonalEdgeStyle;rounded=0;orthogonalLoop=1;jettySize=auto;html=1;" edge="1" parent="WIyWlLk6GJQsqaUBKTNV-1" source="0tAWVHB6Q2zak3xJbXym-128" target="0tAWVHB6Q2zak3xJbXym-132">
          <mxGeometry relative="1" as="geometry" />
        </mxCell>
        <mxCell id="0tAWVHB6Q2zak3xJbXym-128" value="print &quot;Golongan I/II/III/IV/V&lt;div&gt;Tarif tol :&lt;/div&gt;&lt;div&gt;Sisa saldo :&quot;&lt;/div&gt;" style="shape=parallelogram;perimeter=parallelogramPerimeter;whiteSpace=wrap;html=1;fixedSize=1;" vertex="1" parent="WIyWlLk6GJQsqaUBKTNV-1">
          <mxGeometry x="354" y="1140" width="120" height="60" as="geometry" />
        </mxCell>
        <mxCell id="0tAWVHB6Q2zak3xJbXym-135" value="" style="edgeStyle=orthogonalEdgeStyle;rounded=0;orthogonalLoop=1;jettySize=auto;html=1;" edge="1" parent="WIyWlLk6GJQsqaUBKTNV-1" source="0tAWVHB6Q2zak3xJbXym-132" target="0tAWVHB6Q2zak3xJbXym-134">
          <mxGeometry relative="1" as="geometry" />
        </mxCell>
        <mxCell id="0tAWVHB6Q2zak3xJbXym-132" value="Pintu tol terbuka" style="shape=parallelogram;perimeter=parallelogramPerimeter;whiteSpace=wrap;html=1;fixedSize=1;" vertex="1" parent="WIyWlLk6GJQsqaUBKTNV-1">
          <mxGeometry x="354" y="1240" width="120" height="60" as="geometry" />
        </mxCell>
        <mxCell id="0tAWVHB6Q2zak3xJbXym-134" value="Akhir" style="rounded=1;whiteSpace=wrap;html=1;" vertex="1" parent="WIyWlLk6GJQsqaUBKTNV-1">
          <mxGeometry x="354" y="1340" width="120" height="60" as="geometry" />
        </mxCell>
        <mxCell id="0tAWVHB6Q2zak3xJbXym-139" value="bukan termasuk golongan kendaraan I/II/III/IV/V" style="text;html=1;align=center;verticalAlign=middle;resizable=0;points=[];autosize=1;strokeColor=none;fillColor=none;" vertex="1" parent="WIyWlLk6GJQsqaUBKTNV-1">
          <mxGeometry x="510" y="418" width="280" height="30" as="geometry" />
        </mxCell>
      </root>
    </mxGraphModel>
  </diagram>
</mxfile>
